<svg width="50" height="51" viewBox="0 0 50 51" fill="none" xmlns="http://www.w3.org/2000/svg">
<g clip-path="url(#clip0_204_415)">
<path d="M24.9691 14.1697C24.3845 14.1697 23.8151 14.2349 23.2669 14.3571C24.2643 14.8902 24.9428 15.9411 24.9428 17.1511C24.9428 18.8998 23.5251 20.3175 21.7764 20.3175C20.1273 20.3175 18.7733 19.0564 18.6242 17.4462C17.7204 18.7174 17.1888 20.2715 17.1888 21.9504C17.1888 26.2475 20.672 29.7306 24.9691 29.7306C29.2662 29.7306 32.7493 26.247 32.7493 21.9504C32.7493 17.6528 29.2657 14.1697 24.9691 14.1697Z" fill="black"/>
<path d="M24.9145 0.487305C11.1547 0.487305 0 11.642 0 25.4018C0 39.1616 11.1547 50.3163 24.9145 50.3163C38.6743 50.3163 49.829 39.1616 49.829 25.4018C49.829 11.642 38.6743 0.487305 24.9145 0.487305ZM24.9943 41.7535C21.9841 41.7535 12.1486 30.6882 12.1486 21.8959C12.1486 14.8013 17.8997 9.05015 24.9943 9.05015C32.089 9.05015 37.6805 14.8013 37.6805 21.8959C37.6805 30.5245 27.8449 41.7535 24.9943 41.7535Z" fill="black"/>
</g>
<defs>
<clipPath id="clip0_204_415">
<rect width="49.829" height="49.829" fill="white" transform="translate(0 0.487305)"/>
</clipPath>
</defs>
</svg>
