<svg width="25" height="26" viewBox="0 0 25 26" fill="none" xmlns="http://www.w3.org/2000/svg">
<path d="M23.0475 18.3952C22.2902 17.7459 21.4252 17.2053 20.6678 16.6642C19.045 15.4744 17.5308 15.4744 16.3409 17.3134C15.6917 18.3952 14.7181 18.3952 13.745 17.9627C11.0404 16.6647 8.87698 14.8256 7.57901 12.0129C7.0379 10.8231 7.0379 9.63325 8.33637 8.76777C8.98561 8.33528 9.74246 7.79416 9.63434 6.71244C9.52622 5.41447 6.38917 0.979453 5.0912 0.54646C4.55009 0.330216 4.00948 0.330216 3.46836 0.54646C0.547556 1.52006 -0.750411 4.00788 0.439435 6.82056C3.90085 15.4744 10.1749 21.4241 18.6125 25.1017C19.1531 25.318 19.6942 25.318 19.9105 25.4261C21.8577 25.4261 24.1292 23.587 24.7785 21.7485C25.4277 20.0175 24.1292 19.2606 23.0475 18.3952Z" fill="black"/>
<path d="M13.5275 1.30376C14.5162 1.45988 15.4125 1.67208 16.2391 1.9343C16.3791 1.97876 16.5256 2.01867 16.661 2.06617C16.7095 2.08335 16.7535 2.10406 16.8014 2.12174C17.677 2.44106 18.4617 2.82706 19.1518 3.29492C21.579 4.93948 22.8972 7.55108 23.3706 11.4723C23.3706 12.121 23.1544 12.9865 24.0198 12.9865C24.0198 12.9865 24.0198 12.9865 24.0204 12.9865C24.8858 12.9865 24.6696 12.121 24.6696 11.5804C24.7302 8.23366 23.1139 5.05821 20.6292 2.88163C19.1417 1.57911 17.3431 0.636331 15.407 0.227085C15.1867 0.180603 14.9649 0.138668 14.7416 0.105827C14.3768 0.0527764 14.008 0.0189252 13.6361 0.00578888C13.5825 0.0194304 13.5204 0.0244828 13.4527 0.0244828C13.288 0.0249881 13.0955 -0.00280024 12.9121 0.000231214C12.5559 -0.000274029 12.232 0.0926905 12.23 0.649973C12.23 0.651489 12.2295 0.653004 12.229 0.655025C12.2295 1.30376 12.9869 1.19563 13.5275 1.30376Z" fill="black"/>
<path d="M14.6104 3.14219C14.0698 3.03407 13.2043 2.7092 13.0962 3.57468C12.988 4.44016 13.853 4.33204 14.3941 4.44016C18.288 5.30564 19.586 6.71173 20.2352 10.498C20.3434 11.0386 20.1271 11.9041 21.1007 11.796C21.8576 11.6879 21.5332 10.9305 21.6413 10.498C21.6413 6.82036 18.5043 3.57518 14.6104 3.14219Z" fill="black"/>
<path d="M14.9344 6.17077C14.5014 6.17077 14.0689 6.17077 13.9608 6.60326C13.7446 7.25249 14.2857 7.36062 14.7182 7.46874C16.3405 7.68549 17.206 8.55046 17.3141 10.1733C17.4222 10.6063 17.639 10.9307 18.0715 10.9307C18.7207 10.8225 18.7207 10.2814 18.7207 9.84894C18.7207 8.01036 16.7735 6.06315 14.9344 6.17077Z" fill="black"/>
</svg>
