<svg width="50" height="51" viewBox="0 0 50 51" fill="none" xmlns="http://www.w3.org/2000/svg">
<path d="M24.9145 0.829102C11.1547 0.829102 0 11.9838 0 25.7436C0 39.5034 11.1547 50.6581 24.9145 50.6581C38.6743 50.6581 49.829 39.5034 49.829 25.7436C49.829 11.9838 38.6743 0.829102 24.9145 0.829102ZM34.6879 29.3566C32.8069 31.7747 30.3888 32.9837 27.4337 32.9837C26.4595 32.9837 25.536 32.7488 24.6629 32.2784C23.7898 31.808 23.1851 31.2543 22.8491 30.6162C22.1438 33.5046 21.7072 35.2174 21.5395 35.7545C21.0019 37.7022 19.8772 39.751 18.164 41.9008C17.9624 42.1024 17.828 42.0685 17.7608 41.8002C17.3576 38.9456 17.3748 36.5775 17.8113 34.697L20.1789 24.4704C19.7757 23.6979 19.5741 22.7238 19.5741 21.5486C19.5741 20.1718 19.9268 19.0214 20.6321 18.0978C21.3374 17.1742 22.1938 16.7124 23.2012 16.7124C24.0071 16.7124 24.6285 16.9726 25.0651 17.4935C25.5016 18.0139 25.7199 18.6773 25.7199 19.4837C25.7199 19.9874 25.6274 20.6002 25.443 21.3222C25.2581 22.0442 25.0146 22.8839 24.7124 23.8409C24.4103 24.7983 24.192 25.5622 24.0576 26.1332C23.8227 27.1073 24.0071 27.9551 24.6119 28.6771C25.2166 29.399 26.0225 29.7603 27.03 29.7603C28.7427 29.7603 30.1534 28.7862 31.2619 26.8385C32.3704 24.8908 32.9241 22.5394 32.9241 19.7858C32.9241 17.6698 32.2441 15.9485 30.884 14.6222C29.5238 13.2955 27.6176 12.6321 25.1661 12.6321C22.412 12.6321 20.187 13.5137 18.4909 15.277C16.7948 17.0403 15.947 19.1477 15.947 21.5996C15.947 23.0436 16.3668 24.2698 17.2065 25.2773C17.4753 25.6133 17.5592 25.9492 17.4587 26.2847C17.4248 26.3519 17.3829 26.5283 17.3328 26.8137C17.2823 27.0992 17.2404 27.3008 17.207 27.4185C17.1737 27.5362 17.1065 27.7125 17.0054 27.9475C16.9049 28.1824 16.7872 28.2916 16.6528 28.2749C16.5184 28.2582 16.3507 28.2496 16.1491 28.2496C13.5966 27.2083 12.3203 24.8407 12.3203 21.1464C12.3203 18.1907 13.5127 15.5039 15.8969 13.0858C18.2817 10.6677 21.5395 9.45864 25.6704 9.45864C29.1298 9.45864 31.9677 10.5166 34.1842 12.6326C36.4007 14.7485 37.5092 17.2505 37.5092 20.139C37.5092 23.8651 36.5684 26.9385 34.6879 29.3566Z" fill="black"/>
</svg>
