<svg width="50" height="24" viewBox="0 0 50 24" fill="none" xmlns="http://www.w3.org/2000/svg">
<path d="M2 10.5C1.17157 10.5 0.5 11.1716 0.5 12C0.5 12.8284 1.17157 13.5 2 13.5V10.5ZM49.0634 13.0607C49.6492 12.4749 49.6492 11.5251 49.0634 10.9393L39.5174 1.3934C38.9316 0.807612 37.9819 0.807612 37.3961 1.3934C36.8103 1.97918 36.8103 2.92893 37.3961 3.51472L45.8814 12L37.3961 20.4853C36.8103 21.0711 36.8103 22.0208 37.3961 22.6066C37.9819 23.1924 38.9316 23.1924 39.5174 22.6066L49.0634 13.0607ZM2 13.5H48.0027V10.5H2V13.5Z" fill="white"/>
</svg>
