<svg width="50" height="50" viewBox="0 0 50 50" fill="none" xmlns="http://www.w3.org/2000/svg">
<path d="M31.4063 12.3632H18.2988C15.0188 12.3632 12.3501 15.0318 12.3501 18.3119V31.5396C12.3501 34.8197 15.0188 37.4884 18.2988 37.4884H31.4063C34.6864 37.4884 37.355 34.8197 37.355 31.5396V18.3119C37.355 15.0318 34.6864 12.3632 31.4063 12.3632ZM24.8776 32.8462C20.4314 32.8462 16.8144 29.2676 16.8144 24.8689C16.8144 20.4703 20.432 16.8916 24.8776 16.8916C29.3232 16.8916 32.9407 20.4703 32.9407 24.8689C32.9407 29.2676 29.3237 32.8462 24.8776 32.8462ZM33.0842 18.4624C32.0364 18.4624 31.187 17.6131 31.187 16.5653C31.187 15.5174 32.0364 14.6681 33.0842 14.6681C34.1321 14.6681 34.9814 15.5174 34.9814 16.5653C34.9814 17.6131 34.1321 18.4624 33.0842 18.4624Z" fill="white"/>
<path d="M24.9145 0C11.1547 0 0 11.1547 0 24.9145C0 38.6743 11.1547 49.829 24.9145 49.829C38.6743 49.829 49.829 38.6743 49.829 24.9145C49.829 11.1547 38.6743 0 24.9145 0ZM40.2976 31.5398C40.2976 36.4426 36.3087 40.431 31.4064 40.431H18.2989C13.396 40.431 9.40761 36.4421 9.40761 31.5398V18.312C9.40761 13.4091 13.3965 9.42075 18.2989 9.42075H31.4064C36.3092 9.42075 40.2976 13.4096 40.2976 18.312V31.5398Z" fill="white"/>
<path d="M24.8776 19.8287C22.0508 19.8287 19.7514 22.0897 19.7514 24.869C19.7514 27.6484 22.0508 29.9093 24.8776 29.9093C27.7044 29.9093 30.0038 27.6484 30.0038 24.869C30.0038 22.0897 27.7044 19.8287 24.8776 19.8287Z" fill="white"/>
</svg>
