<svg width="50" height="50" viewBox="0 0 50 50" fill="none" xmlns="http://www.w3.org/2000/svg">
<g clip-path="url(#clip0_55_25)">
<path d="M24.9145 0C11.1547 0 0 11.1547 0 24.9145C0 38.6743 11.1547 49.829 24.9145 49.829C38.6743 49.829 49.829 38.6743 49.829 24.9145C49.829 11.1547 38.6743 0 24.9145 0ZM35.7186 28.2077C35.9146 28.4502 36.381 28.9226 37.1186 29.6259H37.1358L37.153 29.6426L37.1702 29.6603L37.205 29.6946C38.8299 31.2043 39.9303 32.478 40.5068 33.5153C40.5417 33.5723 40.5791 33.6451 40.6195 33.7315C40.6594 33.8179 40.6998 33.9705 40.7402 34.1892C40.7801 34.409 40.7771 34.6041 40.7316 34.7768C40.6857 34.9491 40.5417 35.1088 40.2997 35.2523C40.0576 35.3968 39.7176 35.4685 39.2796 35.4685L34.8541 35.5382C34.5778 35.5958 34.2549 35.567 33.8861 35.4518C33.5168 35.3361 33.2177 35.2093 32.9873 35.0714L32.6412 34.8632C32.2951 34.6212 31.8919 34.2524 31.4311 33.7573C30.9698 33.2616 30.5753 32.815 30.2468 32.4174C29.9184 32.0197 29.5668 31.6863 29.1919 31.4145C28.817 31.1436 28.4916 31.0542 28.2153 31.1467C28.1809 31.1588 28.1344 31.179 28.0768 31.2073C28.0187 31.2361 27.9212 31.319 27.7828 31.4579C27.6443 31.5963 27.5206 31.7666 27.4109 31.9677C27.3013 32.1698 27.2033 32.4694 27.1169 32.867C27.0305 33.2641 26.9926 33.7113 27.0047 34.2069C27.0047 34.3792 26.984 34.5384 26.9441 34.6824C26.9037 34.8264 26.8602 34.933 26.8142 35.0017L26.745 35.0881C26.5374 35.3079 26.2322 35.4342 25.829 35.4685H23.8409C23.0224 35.515 22.1812 35.42 21.3172 35.1836C20.4532 34.9466 19.6949 34.6419 19.0441 34.2671C18.3923 33.8932 17.7992 33.5127 17.2636 33.1267C16.7276 32.7402 16.3214 32.4093 16.045 32.1329L15.613 31.7176C15.4978 31.6029 15.3392 31.4296 15.1376 31.1987C14.936 30.9683 14.5242 30.4444 13.9017 29.6259C13.2793 28.8074 12.6684 27.9379 12.0692 27.0153C11.47 26.0932 10.7642 24.8771 9.95125 23.3675C9.13882 21.8583 8.38702 20.291 7.69535 18.6657C7.62613 18.4818 7.59127 18.3262 7.59127 18.1993C7.59127 18.073 7.60845 17.9806 7.64331 17.9225L7.71253 17.8189C7.88532 17.5996 8.21373 17.49 8.69775 17.49L13.4344 17.4556C13.5728 17.4789 13.7052 17.5162 13.832 17.5683C13.9588 17.6198 14.0513 17.6688 14.1089 17.7148L14.1953 17.7668C14.3797 17.8942 14.5176 18.0781 14.6101 18.3201C14.8405 18.8971 15.1057 19.4933 15.4053 20.1097C15.705 20.7261 15.9414 21.1959 16.1142 21.5183L16.3906 22.02C16.7245 22.7112 17.0474 23.3109 17.3586 23.8176C17.6703 24.3249 17.9492 24.72 18.1973 25.0019C18.4449 25.2844 18.6839 25.5067 18.9148 25.6673C19.1452 25.829 19.3412 25.9098 19.5029 25.9098C19.664 25.9098 19.8197 25.881 19.9697 25.8234C19.9924 25.8118 20.0212 25.783 20.0561 25.737C20.091 25.6911 20.1597 25.5643 20.2638 25.3561C20.3673 25.1489 20.4451 24.8781 20.4972 24.5437C20.5492 24.2102 20.6038 23.7434 20.6614 23.1441C20.719 22.5444 20.719 21.8244 20.6614 20.9832C20.6381 20.5219 20.5861 20.1016 20.5058 19.7211C20.4249 19.3412 20.3441 19.0759 20.2638 18.9259L20.1597 18.7187C19.8717 18.3272 19.3821 18.0791 18.6904 17.975C18.5404 17.9528 18.5692 17.8143 18.7768 17.5607C18.9729 17.3414 19.1916 17.1691 19.4336 17.0418C20.0445 16.7427 21.4218 16.6043 23.5655 16.6265C24.5103 16.6386 25.2884 16.7129 25.8992 16.8514C26.1296 16.9095 26.3226 16.9868 26.4782 17.0848C26.6339 17.1823 26.7521 17.3212 26.8329 17.4991C26.9133 17.6779 26.9739 17.8623 27.0143 18.0523C27.0547 18.2428 27.0749 18.5055 27.0749 18.839C27.0749 19.1734 27.0694 19.4907 27.0578 19.7898C27.0461 20.0894 27.032 20.4962 27.0148 21.0085C26.9976 21.5213 26.9885 21.9972 26.9885 22.4348C26.9885 22.5621 26.983 22.8036 26.9714 23.1608C26.9597 23.5185 26.9562 23.7949 26.9628 23.9904C26.9683 24.1865 26.9885 24.4204 27.0229 24.6907C27.0578 24.9615 27.1239 25.1868 27.222 25.3647C27.3195 25.5435 27.4493 25.6845 27.611 25.7881C27.7029 25.8118 27.801 25.8346 27.905 25.8578C28.0086 25.8805 28.1582 25.8179 28.3542 25.6673C28.5497 25.5178 28.769 25.3187 29.011 25.0711C29.253 24.8241 29.5526 24.4381 29.9098 23.9131C30.2665 23.3897 30.6586 22.7698 31.085 22.0548C31.7767 20.8564 32.3931 19.5594 32.9347 18.165C32.9807 18.0493 33.0383 17.9487 33.1075 17.8623C33.1767 17.7754 33.2399 17.7148 33.2975 17.6805L33.3667 17.6284C33.3895 17.6168 33.4182 17.6026 33.4531 17.5855C33.488 17.5688 33.5627 17.5511 33.6779 17.5334C33.7931 17.5168 33.9083 17.5137 34.024 17.5253L39.0027 17.49C39.4519 17.4329 39.8207 17.447 40.1087 17.5329C40.3967 17.6193 40.5755 17.7148 40.6447 17.8184L40.7488 17.9912C41.0136 18.7293 40.1496 20.4224 38.1559 23.0734C37.879 23.4427 37.5041 23.9328 37.0322 24.5432C36.1334 25.6961 35.615 26.451 35.4776 26.8092C35.2806 27.2806 35.3614 27.7474 35.7186 28.2077Z" fill="white"/>
</g>
<defs>
<clipPath id="clip0_55_25">
<rect width="49.829" height="49.829" fill="white"/>
</clipPath>
</defs>
</svg>
