<svg width="23" height="23" viewBox="0 0 23 23" fill="none" xmlns="http://www.w3.org/2000/svg">
<path d="M11.5 1.4375C6.73641 1.4375 2.875 5.29891 2.875 10.0625C2.875 12.4434 3.83971 14.5993 5.39997 16.1599C6.96066 17.7215 10.6375 19.9813 10.8531 22.3531C10.8855 22.7088 11.1429 23 11.5 23C11.8571 23 12.1145 22.7088 12.1469 22.3531C12.3625 19.9813 16.0393 17.7215 17.6 16.1599C19.1603 14.5993 20.125 12.4434 20.125 10.0625C20.125 5.29891 16.2636 1.4375 11.5 1.4375Z" fill="#FF4433"/>
<path d="M11.5 13.0814C13.1672 13.0814 14.5187 11.7299 14.5187 10.0627C14.5187 8.39548 13.1672 7.04395 11.5 7.04395C9.83281 7.04395 8.48126 8.39548 8.48126 10.0627C8.48126 11.7299 9.83281 13.0814 11.5 13.0814Z" fill="white"/>
</svg>
