<svg width="1920" height="129" viewBox="0 0 1920 129" fill="none" xmlns="http://www.w3.org/2000/svg">
<g clip-path="url(#clip0_38_12)">
<path d="M959.786 120.216L959.786 120.216L947.763 107.617L947.763 107.617C947.397 107.235 947.415 106.635 947.804 106.275C947.993 106.101 948.234 106.014 948.476 106.014C948.739 106.014 948.998 106.116 949.189 106.317L949.19 106.317L958.663 116.242L959.524 117.145V115.897V60.4536C959.524 59.9336 959.954 59.5 960.5 59.5C961.047 59.5 961.476 59.9336 961.476 60.4536V115.897V117.145L962.338 116.242L971.811 106.317C972.18 105.931 972.802 105.911 973.196 106.276L973.196 106.276C973.584 106.636 973.603 107.235 973.238 107.618C973.238 107.618 973.238 107.618 973.238 107.618L961.213 120.216L961.213 120.216C960.852 120.595 960.146 120.594 959.786 120.216Z" fill="#FFC225" stroke="#FFC225"/>
<path d="M960.5 51V31" stroke="#FFC225" stroke-width="3" stroke-linecap="round"/>
<path d="M960.5 20V0" stroke="#FFC225" stroke-width="3" stroke-linecap="round"/>
</g>
<defs>
<clipPath id="clip0_38_12">
<rect width="1920" height="129" fill="white"/>
</clipPath>
</defs>
</svg>
