<svg width="50" height="50" viewBox="0 0 50 50" fill="none" xmlns="http://www.w3.org/2000/svg">
<path d="M31.5141 12.4056H18.3616C15.0703 12.4056 12.3925 15.0835 12.3925 18.3747V31.6479C12.3925 34.9392 15.0703 37.617 18.3616 37.617H31.5141C34.8054 37.617 37.4832 34.9392 37.4832 31.6479V18.3747C37.4832 15.0835 34.8054 12.4056 31.5141 12.4056ZM24.9629 32.9589C20.5015 32.9589 16.8721 29.368 16.8721 24.9543C16.8721 20.5405 20.502 16.9496 24.9629 16.9496C29.4238 16.9496 33.0538 20.5405 33.0538 24.9543C33.0538 29.368 29.4243 32.9589 24.9629 32.9589ZM33.1977 18.5258C32.1463 18.5258 31.294 17.6736 31.294 16.6221C31.294 15.5707 32.1463 14.7184 33.1977 14.7184C34.2492 14.7184 35.1014 15.5707 35.1014 16.6221C35.1014 17.6736 34.2492 18.5258 33.1977 18.5258Z" fill="white"/>
<path d="M25 0C11.193 0 0 11.193 0 25C0 38.807 11.193 50 25 50C38.807 50 50 38.807 50 25C50 11.193 38.807 0 25 0ZM40.4359 31.648C40.4359 36.5677 36.4333 40.5697 31.5141 40.5697H18.3617C13.442 40.5697 9.43989 36.5672 9.43989 31.648V18.3748C9.43989 13.4551 13.4425 9.45307 18.3617 9.45307H31.5141C36.4338 9.45307 40.4359 13.4557 40.4359 18.3748V31.648Z" fill="white"/>
<path d="M24.963 19.8967C22.1265 19.8967 19.8192 22.1654 19.8192 24.9543C19.8192 27.7432 22.1265 30.0119 24.963 30.0119C27.7995 30.0119 30.1068 27.7432 30.1068 24.9543C30.1068 22.1654 27.7995 19.8967 24.963 19.8967Z" fill="white"/>
</svg>
