<svg width="50" height="50" viewBox="0 0 50 50" fill="none" xmlns="http://www.w3.org/2000/svg">
<path d="M24.9145 0C11.1547 0 0 11.1547 0 24.9145C0 38.6743 11.1547 49.829 24.9145 49.829C38.6743 49.829 49.829 38.6743 49.829 24.9145C49.829 11.1547 38.6743 0 24.9145 0ZM24.0718 12.9822C24.2557 12.9787 24.4482 13.007 24.6134 13.0065C24.6806 13.0059 24.7427 13.0009 24.7968 12.9873C30.7465 13.2035 35.9384 18.6121 35.8303 24.5619C35.8303 25.1025 36.0465 25.9679 35.181 25.9679C34.3156 25.9679 34.5318 25.1025 34.5318 24.4537C34.4373 23.6696 34.3085 22.9375 34.1443 22.2554C33.9801 21.5733 33.7795 20.9408 33.5415 20.3552C33.1838 19.4766 32.7412 18.7036 32.2052 18.0271C30.598 15.997 28.1567 14.8334 24.6882 14.2857C24.1476 14.1776 23.3902 14.2857 23.3902 13.6365C23.3902 13.0747 23.7141 12.9817 24.0718 12.9822ZM32.2602 24.7781C31.2866 24.8862 31.5029 24.0207 31.3948 23.4801C30.7455 19.6938 29.4475 18.2878 25.5536 17.4223C25.0125 17.3142 24.1476 17.4223 24.2557 16.5568C24.3638 15.6913 25.2293 16.0162 25.7699 16.1243C29.6643 16.5568 32.8013 19.802 32.8013 23.4801C32.6927 23.9126 33.0176 24.67 32.2602 24.7781ZM29.8805 22.8309C29.8805 23.2634 29.8805 23.8045 29.2313 23.9126C28.7988 23.9126 28.5821 23.5883 28.4739 23.1553C28.3658 21.5329 27.5003 20.6674 25.878 20.4507C25.4455 20.3426 24.9044 20.2345 25.1207 19.5852C25.2288 19.1527 25.6613 19.1527 26.0943 19.1527C27.9333 19.0451 29.8805 20.9923 29.8805 22.8309ZM35.9379 34.7304C35.2887 36.5694 33.0171 38.408 31.0699 38.408C30.8536 38.2999 30.3125 38.2999 29.7719 38.0837C21.3344 34.406 15.0603 28.4563 11.5989 19.8025C10.409 16.9898 11.707 14.502 14.6278 13.5284C15.1684 13.3121 15.7095 13.3121 16.2501 13.5284C17.5481 13.9609 20.6851 18.3964 20.7933 19.6943C20.9014 20.7761 20.144 21.3167 19.4953 21.7497C18.1973 22.6152 18.1973 23.805 18.7379 24.9948C20.0359 27.8075 22.1993 29.6461 24.9039 30.9446C25.8775 31.3771 26.8511 31.3771 27.4998 30.2953C28.6897 28.4563 30.2039 28.4563 31.8267 29.6461C32.5841 30.1867 33.4491 30.7278 34.2064 31.3771C35.2892 32.242 36.5871 32.9994 35.9379 34.7304Z" fill="white"/>
</svg>
